<?xml version="1.0" standalone="no"?>
<!DOCTYPE svg PUBLIC "-//W3C//DTD SVG 20010904//EN"
 "http://www.w3.org/TR/2001/REC-SVG-20010904/DTD/svg10.dtd">
<svg version="1.0" xmlns="http://www.w3.org/2000/svg"
 width="895.000000pt" height="881.000000pt" viewBox="0 0 895.000000 881.000000"
 preserveAspectRatio="xMidYMid meet" style="stroke-opacity: 0;">
<metadata>
Created by Justin J. Novack (@jnovack)
</metadata>
<style type="text/css">
    .blue { fill:#4426fd; }
    .white { fill:#ffffff; }
</style>
<g transform="translate(0.000000,881.000000) scale(0.100000,-0.100000)"
 fill="#000000" stroke="none">
<path d="M3955 8794 c-892 -106 -1720 -462 -2400 -1033 -128 -107 -381 -357
-492 -485 -256 -297 -474 -628 -634 -960 -68 -142 -153 -346 -147 -352 2 -2
28 28 56 66 167 218 453 388 722 429 56 9 840 11 3048 9 l2973 -3 -1298 -1396
c-714 -767 -1304 -1403 -1312 -1413 -13 -16 70 -16 1430 -13 1433 3 1445 3
1556 25 437 84 758 225 1015 447 188 161 344 393 422 625 l35 105 -14 121
c-19 158 -57 352 -105 539 -248 956 -823 1811 -1625 2415 -637 479 -1405 782
-2215 875 -180 20 -839 19 -1015 -1z m918 -160 c850 -93 1663 -424 2317 -942
358 -284 622 -575 884 -975 317 -482 528 -1006 641 -1586 40 -210 42 -262 10
-346 -92 -243 -235 -445 -405 -575 -224 -170 -487 -286 -815 -359 -231 -51
-232 -51 -1491 -51 -648 0 -1174 4 -1172 9 2 4 538 583 1192 1286 1040 1117
1191 1284 1204 1325 22 70 10 115 -44 168 l-45 42 -3082 -2 -3082 -3 -100 -27
c-55 -16 -101 -28 -102 -28 -11 0 8 34 87 154 258 392 524 686 880 968 649
514 1458 845 2305 942 173 20 639 20 818 0z"/>
<path d="M1590 5143 c-788 -81 -1354 -473 -1554 -1079 l-27 -82 16 -133 c90
-740 392 -1479 856 -2090 243 -319 551 -626 874 -869 637 -479 1405 -782 2215
-875 188 -21 812 -21 1000 0 897 102 1730 459 2415 1034 128 107 381 357 492
485 327 380 579 793 757 1243 31 78 56 144 56 148 0 4 -24 -28 -53 -71 -67
-101 -221 -256 -316 -319 -148 -97 -307 -161 -461 -184 -56 -9 -848 -11 -3050
-9 l-2974 3 1278 1370 c703 754 1292 1385 1309 1403 l31 32 -1415 -2 c-777 0
-1430 -3 -1449 -5z m2470 -162 c0 -5 -534 -582 -1187 -1282 -978 -1046 -1190
-1279 -1202 -1314 -21 -65 -8 -112 45 -163 l45 -42 3087 2 3087 3 100 28 c107
29 125 32 125 19 0 -13 -172 -273 -242 -366 -226 -299 -441 -520 -728 -748
-654 -518 -1467 -849 -2317 -942 -191 -21 -615 -21 -806 0 -850 93 -1663 424
-2317 942 -233 185 -400 347 -575 557 -522 628 -851 1354 -975 2153 l-19 123
26 72 c63 176 186 378 296 486 236 233 675 421 1100 470 101 12 2457 13 2457
2z"/>
</g>
</svg>
