<?xml version="1.0" standalone="no"?>
<!DOCTYPE svg PUBLIC "-//W3C//DTD SVG 20010904//EN"
 "http://www.w3.org/TR/2001/REC-SVG-20010904/DTD/svg10.dtd">
<svg version="1.0" xmlns="http://www.w3.org/2000/svg"
 width="895.000000pt" height="881.000000pt" viewBox="0 0 895.000000 881.000000"
 preserveAspectRatio="xMidYMid meet" style="stroke-opacity: 0;">
<metadata>
Created by Justin J. Novack (@jnovack)
</metadata>
<style type="text/css">
    .blue { fill:#4426fd; }
    .white { fill:#ffffff; }
</style>
<g transform="translate(0.000000,881.000000) scale(0.100000,-0.100000)"
 fill="#000000" stroke="none">
<path d="M0 7043 l1 -1768 23 90 c107 410 293 708 561 897 141 100 317 173
475 197 56 9 840 11 3048 9 l2973 -3 -1298 -1396 c-714 -767 -1304 -1403
-1312 -1413 -13 -16 70 -16 1430 -13 1433 3 1445 3 1556 25 272 52 454 111
658 213 416 207 685 523 810 954 l25 87 0 1944 0 1944 -4475 0 -4475 0 0
-1767z m8790 -216 c0 -1798 0 -1823 -20 -1897 -63 -232 -179 -451 -320 -603
-194 -210 -546 -387 -945 -476 -231 -51 -232 -51 -1491 -51 -647 0 -1174 4
-1172 9 2 4 540 585 1196 1290 l1192 1282 0 82 0 83 -43 42 -43 42 -3080 -2
-3079 -3 -100 -28 c-127 -34 -300 -119 -401 -195 -44 -33 -132 -114 -197 -181
-64 -67 -119 -121 -122 -121 -3 0 -5 574 -5 1275 l0 1275 4315 0 4315 0 0
-1823z"/>
<path d="M1590 5143 c-797 -81 -1361 -478 -1559 -1096 l-31 -97 0 -1975 0
-1975 4475 0 4475 0 -1 1883 c-1 1864 -1 1881 -19 1766 -93 -586 -348 -993
-749 -1196 -85 -43 -226 -88 -321 -102 -56 -9 -848 -11 -3050 -9 l-2974 3
1278 1370 c703 754 1292 1385 1309 1403 l31 32 -1415 -2 c-777 0 -1430 -3
-1449 -5z m2470 -162 c0 -5 -534 -582 -1187 -1282 l-1188 -1272 -3 -80 -3 -80
43 -44 42 -43 3047 0 c2635 0 3058 2 3131 15 166 29 298 81 443 176 82 53 313
271 361 340 15 22 31 39 35 39 5 0 9 -574 9 -1295 l0 -1295 -4315 0 -4315 0 0
1861 0 1861 34 103 c67 198 189 406 309 524 236 233 675 421 1100 470 101 12
2457 13 2457 2z"/>
</g>
</svg>
