<?xml version="1.0" standalone="no"?>
<!DOCTYPE svg PUBLIC "-//W3C//DTD SVG 20010904//EN"
 "http://www.w3.org/TR/2001/REC-SVG-20010904/DTD/svg10.dtd">
<svg version="1.0" xmlns="http://www.w3.org/2000/svg"
 width="895.000000pt" height="881.000000pt" viewBox="0 0 895.000000 881.000000"
 preserveAspectRatio="xMidYMid meet" style="stroke-opacity: 0;">
<metadata>
Created by Justin J. Novack (@jnovack)
</metadata>
<style type="text/css">
    .blue { fill:#4426fd; }
    .white { fill:#ffffff; }
</style>
<g transform="translate(0.000000,881.000000) scale(0.100000,-0.100000)"
 fill="#000000" stroke="none">
<path class="white" d="M1026 6454 c-204 -40 -412 -148 -574 -299 -34 -31 -93
-98 -131 -148 -65 -85 -73 -103 -119 -242 -88 -267 -153 -563 -187 -845 -12
-107 -15 -218 -13 -540 l3 -405 29 85 c136 398 410 699 809 885 173 81 356
136 582 178 119 21 129 21 1575 25 l1454 3 -30 -33 c-17 -18 -607 -649 -1310
-1403 l-1278 -1370 2974 -3 c2202 -2 2994 0 3050 9 95 14 236 59 321 102 211
107 403 291 517 497 51 93 137 401 186 670 54 297 61 388 61 800 0 212 -4 394
-8 405 -6 15 -15 0 -38 -70 -130 -389 -406 -693 -804 -885 -190 -92 -379 -152
-638 -202 -111 -22 -123 -22 -1557 -25 l-1444 -4 20 23 c12 13 592 637 1289
1388 697 751 1279 1377 1293 1393 l26 27 -2995 -1 c-2488 -1 -3006 -3 -3063
-15z"/>

<path class="blue" d="M4170 8684 c-790 -73 -1499 -316 -2130 -731 -495 -327
-863 -691 -1186 -1175 -94 -140 -105 -161 -102 -195 3 -37 4 -38 43 -37 22 0
83 10 135 22 l95 22 3049 0 3049 0 32 -24 c45 -34 59 -74 47 -129 -8 -40 -107
-149 -1198 -1322 -1119 -1203 -1189 -1281 -1189 -1314 l0 -36 1200 0 c1104 0
1209 1 1310 18 150 24 245 45 341 73 44 13 84 24 89 24 5 0 34 10 65 21 30 12
65 26 78 30 55 22 71 29 137 60 39 19 93 49 122 67 29 17 55 32 58 32 15 0
206 154 256 206 100 106 184 236 250 389 17 39 38 86 47 105 34 74 7 302 -78
635 -223 879 -727 1686 -1400 2241 -575 475 -1286 809 -2020 948 -287 55 -425
68 -750 71 -168 1 -325 1 -350 -1z"/>
<path class="blue"  d="M1645 5015 c-216 -21 -482 -82 -635 -147 -14 -6 -34
-14 -45 -18 -22 -9 -157 -75 -204 -101 -67 -36 -225 -156 -285 -216 -80 -80
-173 -213 -232 -335 -94 -192 -101 -221 -86 -346 7 -54 28 -174 47 -268 191
-949 719 -1841 1445 -2440 565 -467 1255 -794 1975 -939 335 -67 471 -80 845
-80 293 0 356 3 505 23 716 97 1349 330 1925 709 495 327 863 691 1186 1175
94 140 105 161 102 195 l-3 38 -50 -1 c-27 0 -92 -10 -144 -22 l-94 -23 -3055
1 -3056 0 -31 25 c-43 32 -59 73 -48 123 7 34 156 198 1196 1312 1163 1246
1188 1273 1185 1309 l-3 36 -1155 1 c-856 1 -1189 -2 -1285 -11z"/>

<path d="M3955 8794 c-892 -106 -1720 -462 -2400 -1033 -128 -107 -381 -357
-492 -485 -256 -297 -474 -628 -634 -960 -68 -142 -153 -346 -147 -352 2 -2
28 28 56 66 167 218 453 388 722 429 56 9 840 11 3048 9 l2973 -3 -1298 -1396
c-714 -767 -1304 -1403 -1312 -1413 -13 -16 70 -16 1430 -13 1433 3 1445 3
1556 25 437 84 758 225 1015 447 188 161 344 393 422 625 l35 105 -14 121
c-19 158 -57 352 -105 539 -248 956 -823 1811 -1625 2415 -637 479 -1405 782
-2215 875 -180 20 -839 19 -1015 -1z m918 -160 c850 -93 1663 -424 2317 -942
358 -284 622 -575 884 -975 317 -482 528 -1006 641 -1586 40 -210 42 -262 10
-346 -92 -243 -235 -445 -405 -575 -224 -170 -487 -286 -815 -359 -231 -51
-232 -51 -1491 -51 -648 0 -1174 4 -1172 9 2 4 538 583 1192 1286 1040 1117
1191 1284 1204 1325 22 70 10 115 -44 168 l-45 42 -3082 -2 -3082 -3 -100 -27
c-55 -16 -101 -28 -102 -28 -11 0 8 34 87 154 258 392 524 686 880 968 649
514 1458 845 2305 942 173 20 639 20 818 0z"/>
<path d="M1590 5143 c-788 -81 -1354 -473 -1554 -1079 l-27 -82 16 -133 c90
-740 392 -1479 856 -2090 243 -319 551 -626 874 -869 637 -479 1405 -782 2215
-875 188 -21 812 -21 1000 0 897 102 1730 459 2415 1034 128 107 381 357 492
485 327 380 579 793 757 1243 31 78 56 144 56 148 0 4 -24 -28 -53 -71 -67
-101 -221 -256 -316 -319 -148 -97 -307 -161 -461 -184 -56 -9 -848 -11 -3050
-9 l-2974 3 1278 1370 c703 754 1292 1385 1309 1403 l31 32 -1415 -2 c-777 0
-1430 -3 -1449 -5z m2470 -162 c0 -5 -534 -582 -1187 -1282 -978 -1046 -1190
-1279 -1202 -1314 -21 -65 -8 -112 45 -163 l45 -42 3087 2 3087 3 100 28 c107
29 125 32 125 19 0 -13 -172 -273 -242 -366 -226 -299 -441 -520 -728 -748
-654 -518 -1467 -849 -2317 -942 -191 -21 -615 -21 -806 0 -850 93 -1663 424
-2317 942 -233 185 -400 347 -575 557 -522 628 -851 1354 -975 2153 l-19 123
26 72 c63 176 186 378 296 486 236 233 675 421 1100 470 101 12 2457 13 2457
2z"/>
</g>
</svg>
