<?xml version="1.0" standalone="no"?>
<!DOCTYPE svg PUBLIC "-//W3C//DTD SVG 20010904//EN"
 "http://www.w3.org/TR/2001/REC-SVG-20010904/DTD/svg10.dtd">
<svg version="1.0" xmlns="http://www.w3.org/2000/svg"
 width="895.000000pt" height="881.000000pt" viewBox="0 0 895.000000 881.000000"
 preserveAspectRatio="xMidYMid meet" style="stroke-opacity: 0;">
<metadata>
Created by Justin J. Novack (@jnovack)
</metadata>
<style type="text/css">
    .blue { fill:#4426fd; }
    .white { fill:#ffffff; }
</style>
<g transform="translate(0.000000,881.000000) scale(0.100000,-0.100000)"
 fill="#000000" stroke="none">
<path class="white" d="M1056 6479 c-106 -15 -209 -49 -322 -104 -320 -156
-543 -431 -686 -845 l-43 -125 -3 -727 c-3 -791 -1 -809 48 -646 33 111 124
294 200 400 82 116 225 258 341 340 250 178 621 311 974 348 67 7 559 10 1466
8 l1366 -3 -691 -741 c-774 -830 -1369 -1467 -1678 -1798 -141 -150 -208 -228
-208 -243 l0 -23 2989 0 c3226 0 3053 -3 3226 51 307 94 584 347 740 674 60
127 119 307 150 458 l25 125 0 651 c0 549 -2 651 -14 651 -8 0 -17 -15 -21
-37 -13 -70  -67 -219 -117 -318 -220 -444 -673 -753 -1283 -874 -206 -41
-251 -42 -1654 -39 l-1353 3 248 266 c137 146 355 379 484 519 129 140 303
326 385 415 140 149 635 681 749 805 120 130 442 476 579 621 92 99 147 165
147 178 l0 21 -2992 -1 c-1646 -1 -3020 -5 -3052 -10z"/>

<path class="blue" d="M653 8663 l-513 -3 0 -1285 c0 -1277 0 -1285 20 -1285
12 0 63 44 132 116 112 115 201 192 268 233 85 51 244 123 316 143 l79 23
3090 2 3089 3 43 -42 c42 -41 43 -43 43 -110 l0 -67 -1192 -1282 c-771 -829
-1194 -1291 -1196 -1306 l-3 -24 1198 4 c1173 3 1201 4 1323 25 149 26 199 37
306 68 44 13 84 24 89 24 5 0 34 10 65 21 30 12 65 26 78 30 55 22 71 29 137
60 39 19 93 49 122 66 29 18 55 33 58 33 15 0 205 153 250 201 75 80 164 211
218 321 26 53 47 100 47 105 0 4 7 20 15 36 7 15 24 67 36 115 12 48 26 91 30
97 5 5 9 823 9 1847 l0 1838 -3822 -2 c-2103 -2 -4054 -4 -4335 -5z"/>
<path class="blue" d="M1655 4995 c-216 -21 -482 -82 -635 -147 -14 -6 -34
-14 -45 -18 -22 -9 -157 -75 -204 -101 -65 -35 -223 -154 -280 -211 -123 -123
-251 -343 -311 -533 -12 -38 -26 -78 -31 -87 -5 -10 -9 -820 -9 -1888 l0
-1870 2948 0 c1621 0 3571 3 4335 7 l1387 6 0 1304 0 1303 -24 0 c-16 0 -32
-12 -50 -39 -41 -59 -273 -282 -341 -327 -140 -94 -247 -141 -395 -174 l-94
-21 -3065 1 -3066 0 -43 43 c-43 42 -43 42 -40 108 l3 66 1188 1272 c902 967
1187 1278 1187 1297 l0 24 -1142 -1 c-828 -1 -1179 -5 -1273 -14z"/>

<path d="M0 7043 l1 -1768 23 90 c107 410 293 708 561 897 141 100 317 173
475 197 56 9 840 11 3048 9 l2973 -3 -1298 -1396 c-714 -767 -1304 -1403
-1312 -1413 -13 -16 70 -16 1430 -13 1433 3 1445 3 1556 25 272 52 454 111
658 213 416 207 685 523 810 954 l25 87 0 1944 0 1944 -4475 0 -4475 0 0
-1767z m8790 -216 c0 -1798 0 -1823 -20 -1897 -63 -232 -179 -451 -320 -603
-194 -210 -546 -387 -945 -476 -231 -51 -232 -51 -1491 -51 -647 0 -1174 4
-1172 9 2 4 540 585 1196 1290 l1192 1282 0 82 0 83 -43 42 -43 42 -3080 -2
-3079 -3 -100 -28 c-127 -34 -300 -119 -401 -195 -44 -33 -132 -114 -197 -181
-64 -67 -119 -121 -122 -121 -3 0 -5 574 -5 1275 l0 1275 4315 0 4315 0 0
-1823z"/>
<path d="M1590 5143 c-797 -81 -1361 -478 -1559 -1096 l-31 -97 0 -1975 0
-1975 4475 0 4475 0 -1 1883 c-1 1864 -1 1881 -19 1766 -93 -586 -348 -993
-749 -1196 -85 -43 -226 -88 -321 -102 -56 -9 -848 -11 -3050 -9 l-2974 3
1278 1370 c703 754 1292 1385 1309 1403 l31 32 -1415 -2 c-777 0 -1430 -3
-1449 -5z m2470 -162 c0 -5 -534 -582 -1187 -1282 l-1188 -1272 -3 -80 -3 -80
43 -44 42 -43 3047 0 c2635 0 3058 2 3131 15 166 29 298 81 443 176 82 53 313
271 361 340 15 22 31 39 35 39 5 0 9 -574 9 -1295 l0 -1295 -4315 0 -4315 0 0
1861 0 1861 34 103 c67 198 189 406 309 524 236 233 675 421 1100 470 101 12
2457 13 2457 2z"/>
</g>
</svg>
