<?xml version="1.0" standalone="no"?>
<!DOCTYPE svg PUBLIC "-//W3C//DTD SVG 20010904//EN"
 "http://www.w3.org/TR/2001/REC-SVG-20010904/DTD/svg10.dtd">
<svg version="1.0" xmlns="http://www.w3.org/2000/svg"
 width="895.000000pt" height="881.000000pt" viewBox="0 0 895.000000 881.000000"
 preserveAspectRatio="xMidYMid meet" style="stroke-opacity: 0;">
<metadata>
Created by Justin J. Novack (@jnovack)
</metadata>
<style type="text/css">
    .blue { fill:#4426fd; }
    .white { fill:#ffffff; }
</style>
<g transform="translate(0.000000,881.000000) scale(0.100000,-0.100000)"
 fill="#000000" stroke="none">
<path d="M1056 6479 c-106 -15 -209 -49 -322 -104 -320 -156 -543 -431 -686
-845 l-43 -125 -3 -727 c-3 -791 -1 -809 48 -646 33 111 124 294 200 400 82
116 225 258 341 340 250 178 621 311 974 348 67 7 559 10 1466 8 l1366 -3
-691 -741 c-774 -830 -1369 -1467 -1678 -1798 -141 -150 -208 -228 -208 -243
l0 -23 2989 0 c3226 0 3053 -3 3226 51 307 94 584 347 740 674 60 127 119 307
150 458 l25 125 0 651 c0 549 -2 651 -14 651 -8 0 -17 -15 -21 -37 -13 -70
-67 -219 -117 -318 -220 -444 -673 -753 -1283 -874 -206 -41 -251 -42 -1654
-39 l-1353 3 248 266 c137 146 355 379 484 519 129 140 303 326 385 415 140
149 635 681 749 805 120 130 442 476 579 621 92 99 147 165 147 178 l0 21
-2992 -1 c-1646 -1 -3020 -5 -3052 -10z"/>
</g>
</svg>
