<?xml version="1.0" standalone="no"?>
<!DOCTYPE svg PUBLIC "-//W3C//DTD SVG 20010904//EN"
 "http://www.w3.org/TR/2001/REC-SVG-20010904/DTD/svg10.dtd">
<svg version="1.0" xmlns="http://www.w3.org/2000/svg"
 width="895.000000pt" height="881.000000pt" viewBox="0 0 895.000000 881.000000"
 preserveAspectRatio="xMidYMid meet" style="stroke-opacity: 0;">
<metadata>
Created by Justin J. Novack (@jnovack)
</metadata>
<style type="text/css">
    .blue { fill:#4426fd; }
    .white { fill:#ffffff; }
</style>
<g transform="translate(0.000000,881.000000) scale(0.100000,-0.100000)"
 fill="#000000" stroke="none">
<path d="M1026 6454 c-204 -40 -412 -148 -574 -299 -34 -31 -93 -98 -131 -148
-65 -85 -73 -103 -119 -242 -88 -267 -153 -563 -187 -845 -12 -107 -15 -218
-13 -540 l3 -405 29 85 c136 398 410 699 809 885 173 81 356 136 582 178 119
21 129 21 1575 25 l1454 3 -30 -33 c-17 -18 -607 -649 -1310 -1403 l-1278
-1370 2974 -3 c2202 -2 2994 0 3050 9 95 14 236 59 321 102 211 107 403 291
517 497 51 93 137 401 186 670 54 297 61 388 61 800 0 212 -4 394 -8 405 -6
15 -15 0 -38 -70 -130 -389 -406 -693 -804 -885 -190 -92 -379 -152 -638 -202
-111 -22 -123 -22 -1557 -25 l-1444 -4 20 23 c12 13 592 637 1289 1388 697
751 1279 1377 1293 1393 l26 27 -2995 -1 c-2488 -1 -3006 -3 -3063 -15z"/>
</g>
</svg>
